<svg width="512" height="512" viewBox="0 0 512 512" fill="none" xmlns="http://www.w3.org/2000/svg">
  <!-- Background square with rounded corners -->
  <rect width="512" height="512" rx="96" fill="#4a69ff"/>
  <rect width="512" height="512" rx="96" fill="url(#grad)"/>

  <!-- Sun -->
  <circle cx="256" cy="196" r="60" fill="#ffffff"/>
  <line x1="256" y1="96" x2="256" y2="130" stroke="white" stroke-width="18" stroke-linecap="round"/>
  <line x1="256" y1="262" x2="256" y2="296" stroke="white" stroke-width="18" stroke-linecap="round"/>
  <line x1="156" y1="196" x2="190" y2="196" stroke="white" stroke-width="18" stroke-linecap="round"/>
  <line x1="322" y1="196" x2="356" y2="196" stroke="white" stroke-width="18" stroke-linecap="round"/>
  <line x1="185" y1="127" x2="209" y2="151" stroke="white" stroke-width="18" stroke-linecap="round"/>
  <line x1="303" y1="241" x2="327" y2="265" stroke="white" stroke-width="18" stroke-linecap="round"/>
  <line x1="327" y1="127" x2="303" y2="151" stroke="white" stroke-width="18" stroke-linecap="round"/>
  <line x1="209" y1="241" x2="185" y2="265" stroke="white" stroke-width="18" stroke-linecap="round"/>

  <!-- Calendar -->
  <rect x="160" y="308" width="192" height="144" rx="14" fill="white"/>
  <rect x="160" y="308" width="192" height="44" rx="14" fill="#1a1f36"/>
  <rect x="160" y="330" width="192" height="22" fill="#1a1f36"/>
  <circle cx="220" cy="390" r="10" fill="#4a69ff"/>
  <circle cx="256" cy="390" r="10" fill="#4a69ff"/>
  <circle cx="292" cy="390" r="10" fill="#4a69ff"/>
  <circle cx="220" cy="424" r="10" fill="#ccd8ff"/>
  <circle cx="256" cy="424" r="10" fill="#ccd8ff"/>

  <defs>
    <linearGradient id="grad" x1="0" y1="0" x2="512" y2="512" gradientUnits="userSpaceOnUse">
      <stop offset="0%" stop-color="#668cff" stop-opacity="0.4"/>
      <stop offset="100%" stop-color="#2e44cc" stop-opacity="0.4"/>
    </linearGradient>
  </defs>
</svg>
