<svg viewBox="0 0 220 220" xmlns="http://www.w3.org/2000/svg">
  <defs>
    <linearGradient id="pageGradient" x1="0" y1="0" x2="1" y2="0">
      <stop offset="0" stop-color="#F3F6FF" />
      <stop offset="1" stop-color="#F7EFFF" />
    </linearGradient>
  </defs>
  <g fill="none" stroke="#6C7DD6" stroke-width="4" stroke-linecap="round" stroke-linejoin="round">
    <path d="M48 130c22-10 46-10 68 0v44c-22-10-46-10-68 0z" />
    <path d="M172 130c-22-10-46-10-68 0v44c22-10 46-10 68 0z" />
    <path d="M62 134c16-6 32-6 48 0" />
    <path d="M110 134c16-6 32-6 48 0" />
    <path d="M62 146c16-6 32-6 48 0" />
    <path d="M110 146c16-6 32-6 48 0" />
  </g>
  <path d="M110 126 C 137.7 120.0, 144.0 111.3, 114.1 121.3 L 114.1 178.7 C 144.0 188.7, 137.7 180.0, 110 174 Z" fill="url(#pageGradient)" stroke="#A2AEEA" stroke-width="3" stroke-linecap="round" stroke-linejoin="round" />
  <path d="M112.6 123.3 L 112.6 176.7" stroke="#C7CEF6" stroke-width="2" stroke-linecap="round" opacity="0.6" />
  <path d="M114.0 136.0 Q 120.0 125.7 106.1 129.3" stroke="#C9D1FF" stroke-width="2" stroke-linecap="round" fill="none" opacity="0.7" />
  <path d="M116.0 148.0 Q 122.0 139.7 104.1 143.3" stroke="#C9D1FF" stroke-width="2" stroke-linecap="round" fill="none" opacity="0.6" />
</svg>